 <svg width="64" height="64" viewBox="0 0 64 64" fill="none" xmlns="http://www.w3.org/2000/svg">
<rect width="64" height="64" rx="32" fill="url(#paint0_radial_228_470)"/>
<path d="M45.4323 37.0043C43.4731 37.0043 41.5494 36.6979 39.7265 36.0955C38.8333 35.7908 37.7352 36.0703 37.19 36.6303L33.592 39.3464C29.4192 37.119 26.8489 34.5495 24.6519 30.4081L27.2881 26.9038C27.9731 26.2198 28.2187 25.2206 27.9244 24.2831C27.3194 22.4506 27.0121 20.5278 27.0121 18.5678C27.0121 17.1519 25.8602 16 24.4444 16H18.5677C17.1519 16 16 17.1519 16 18.5677C16 34.7969 29.2031 48 45.4323 48C46.8481 48 48 46.8481 48 45.4323V39.572C47.9999 38.1563 46.848 37.0043 45.4323 37.0043Z" fill="black"/>
<defs>
<radialGradient id="paint0_radial_228_470" cx="0" cy="0" r="1" gradientUnits="userSpaceOnUse" gradientTransform="translate(31.3726 32.6274) rotate(180) scale(31.3725 32.6274)">
<stop offset="0.303924" stop-color="#F2E191"/>
<stop offset="1" stop-color="#E8C25F"/>
</radialGradient>
</defs>
</svg>
