<svg width="64" height="64" viewBox="0 0 64 64" fill="none" xmlns="http://www.w3.org/2000/svg">
<rect width="64" height="64" rx="32" fill="url(#paint0_radial_228_474)"/>
<path fill-rule="evenodd" clip-rule="evenodd" d="M44.0078 40.3828C41.7113 40.3828 39.6859 39.2318 38.4551 37.4833C36.8971 39.2467 34.6456 40.3828 32.1133 40.3828C27.4288 40.3828 23.6172 36.5712 23.6172 31.8867C23.6172 27.2022 27.4288 23.3906 32.1133 23.3906C34.0332 23.3906 35.7865 24.055 37.2109 25.1332V25.0898C37.2109 24.1506 37.9709 23.3906 38.9102 23.3906C39.8494 23.3906 40.6094 24.1506 40.6094 25.0898V33.5859C40.6094 35.4594 42.1344 36.9844 44.0078 36.9844C45.8813 36.9844 47.4062 35.4594 47.4062 33.5859C47.4062 22.2135 39.8807 16.5938 32.1133 16.5938C23.6803 16.5938 16.8203 23.4537 16.8203 31.8867C16.8203 40.3197 23.6803 47.1797 32.1133 47.1797C35.5117 47.1797 38.726 46.0912 41.4093 44.0301C43.2016 42.6619 45.254 45.3629 43.4802 46.725C40.1962 49.2456 36.2667 50.5781 32.1133 50.5781C21.8068 50.5781 13.4219 42.1932 13.4219 31.8867C13.4219 21.5803 21.8068 13.1953 32.1133 13.1953C41.504 13.1953 50.8047 20.1208 50.8047 33.5859C50.8047 37.3345 47.7564 40.3828 44.0078 40.3828ZM27.0156 31.8867C27.0156 29.0758 29.3023 26.7891 32.1133 26.7891C34.9242 26.7891 37.2109 29.0758 37.2109 31.8867C37.2109 34.6977 34.9242 36.9844 32.1133 36.9844C29.3023 36.9844 27.0156 34.6977 27.0156 31.8867Z" fill="black"/>
<defs>
<radialGradient id="paint0_radial_228_474" cx="0" cy="0" r="1" gradientUnits="userSpaceOnUse" gradientTransform="translate(31.3726 32.6274) rotate(180) scale(31.3725 32.6274)">
<stop offset="0.303924" stop-color="#F2E191"/>
<stop offset="1" stop-color="#E8C25F"/>
</radialGradient>
</defs>
</svg>
