<svg width="1413" height="885" viewBox="0 0 1413 885" fill="none" xmlns="http://www.w3.org/2000/svg">
<g filter="url(#filter0_d_228_272)">
<path d="M110.23 160.572C108.642 114.628 148.455 76.6107 194.279 80.2919C292.665 88.1953 469.553 98.8984 706 98.8984C944.397 98.8984 1122.25 88.0181 1220.14 80.097C1265.17 76.4531 1304.11 113.089 1302.58 158.242C1300.41 222.391 1298 315.014 1298 410.499C1298 507.53 1300.49 601.606 1302.69 665.85C1304.2 709.929 1267.1 746.039 1223.07 743.524C1125.21 737.935 945.094 730.076 706 730.076C468.742 730.076 289.558 737.815 191.203 743.395C146.383 745.937 108.536 708.507 110.117 663.643C112.078 608.052 114 524.475 114 410.499C114 298.701 112.15 216.151 110.23 160.572Z" fill="url(#paint0_linear_228_272)"/>
<path d="M110.23 160.572C108.642 114.628 148.455 76.6107 194.279 80.2919C292.665 88.1953 469.553 98.8984 706 98.8984C944.397 98.8984 1122.25 88.0181 1220.14 80.097C1265.17 76.4531 1304.11 113.089 1302.58 158.242C1300.41 222.391 1298 315.014 1298 410.499C1298 507.53 1300.49 601.606 1302.69 665.85C1304.2 709.929 1267.1 746.039 1223.07 743.524C1125.21 737.935 945.094 730.076 706 730.076C468.742 730.076 289.558 737.815 191.203 743.395C146.383 745.937 108.536 708.507 110.117 663.643C112.078 608.052 114 524.475 114 410.499C114 298.701 112.15 216.151 110.23 160.572Z" fill="url(#paint1_linear_228_272)"/>
<path d="M1220.3 82.0908C1263.81 78.5696 1301.48 113.678 1300.61 157.146L1300.58 158.174C1298.41 222.335 1296 314.984 1296 410.499C1296 501.494 1298.19 589.887 1300.27 653.526L1300.69 665.918C1302.15 708.481 1266.61 743.425 1224.18 741.577L1223.18 741.527C1125.29 735.937 945.137 728.076 706 728.076C476.115 728.076 300.735 735.34 200.549 740.868L191.089 741.397C147.798 743.853 111.152 707.981 112.087 664.736L112.116 663.714C114.077 608.098 116 524.498 116 410.499C116 305.667 114.374 226.542 112.588 171.245L112.229 160.503C110.695 116.103 148.882 79.2795 193.074 82.209L194.119 82.2852C292.552 90.1923 469.493 100.898 706 100.898C937.005 100.898 1111.18 90.685 1210.88 82.8418L1220.3 82.0908Z" stroke="url(#paint2_radial_228_272)" stroke-opacity="0.64" stroke-width="4" style="mix-blend-mode:soft-light"/>
</g>
<defs>
<filter id="filter0_d_228_272" x="0.0695801" y="0.84668" width="1412.66" height="883.801" filterUnits="userSpaceOnUse" color-interpolation-filters="sRGB">
<feFlood flood-opacity="0" result="BackgroundImageFix"/>
<feColorMatrix in="SourceAlpha" type="matrix" values="0 0 0 0 0 0 0 0 0 0 0 0 0 0 0 0 0 0 127 0" result="hardAlpha"/>
<feOffset dy="31"/>
<feGaussianBlur stdDeviation="55"/>
<feComposite in2="hardAlpha" operator="out"/>
<feColorMatrix type="matrix" values="0 0 0 0 0 0 0 0 0 0 0 0 0 0 0 0 0 0 0.9 0"/>
<feBlend mode="normal" in2="BackgroundImageFix" result="effect1_dropShadow_228_272"/>
<feBlend mode="normal" in="SourceGraphic" in2="effect1_dropShadow_228_272" result="shape"/>
</filter>
<linearGradient id="paint0_linear_228_272" x1="117.256" y1="77.4828" x2="1356.34" y2="619.029" gradientUnits="userSpaceOnUse">
<stop stop-color="#FFDD28"/>
<stop offset="0.52741" stop-color="#FFE86F"/>
<stop offset="1" stop-color="#FFDD28"/>
</linearGradient>
<linearGradient id="paint1_linear_228_272" x1="1306" y1="71.9994" x2="54.0428" y2="187.937" gradientUnits="userSpaceOnUse">
<stop stop-color="#E8C25F"/>
<stop offset="0.505208" stop-color="#F2E191"/>
<stop offset="1" stop-color="#D3A647"/>
</linearGradient>
<radialGradient id="paint2_radial_228_272" cx="0" cy="0" r="1" gradientUnits="userSpaceOnUse" gradientTransform="translate(1306 748.999) rotate(-150.606) scale(688.654 1220.66)">
<stop stop-color="white"/>
<stop offset="1" stop-color="#D8AF53"/>
</radialGradient>
</defs>
</svg>
