<svg width="40" height="30" viewBox="0 0 20 19" fill="none" xmlns="http://www.w3.org/2000/svg">
<g clip-path="url(#clip0_5218_33)">
<circle cx="9.72419" cy="9.44856" r="9.44856" fill="black"/>
<path d="M5.5323 10.1249C5.56854 10.1313 5.60522 10.1343 5.64192 10.1338L11.8911 10.1338L11.7548 10.2027C11.6216 10.2713 11.5005 10.3647 11.3967 10.4786L9.64431 12.3858C9.41351 12.6256 9.37473 13.0113 9.55241 13.2997C9.7592 13.6071 10.1558 13.6738 10.4382 13.4487C10.461 13.4306 10.4827 13.4107 10.5031 13.3894L13.672 9.94063C13.9197 9.67142 13.9199 9.2347 13.6725 8.96518L10.5031 5.51588C10.2552 5.2469 9.85395 5.2475 9.60678 5.51724C9.58733 5.53847 9.56917 5.56106 9.55241 5.58486C9.37473 5.87328 9.41351 6.259 9.64431 6.49878L11.3936 8.40939C11.4866 8.51069 11.5935 8.59564 11.7105 8.66115L11.9006 8.75426L5.6768 8.75426C5.35303 8.74118 5.06898 8.98731 5.00815 9.33365C4.95212 9.70967 5.18678 10.0639 5.5323 10.1249Z" fill="white"/>
</g>
<defs>
<clipPath id="clip0_5218_33">
<rect width="18.8971" height="18.8971" fill="white" transform="translate(0.275635)"/>
</clipPath>
</defs>
</svg>
