<svg width="73" height="73" viewBox="0 0 73 73" fill="none" xmlns="http://www.w3.org/2000/svg">
<g filter="url(#filter0_d_228_231)">
<rect x="11" y="11" width="51" height="51" rx="25.5" fill="url(#paint0_radial_228_231)" shape-rendering="crispEdges"/>
<path d="M43.788 40.9445C43.5407 39.2664 42.6989 37.7324 41.4156 36.6208C40.1323 35.5092 38.4923 34.8936 36.7932 34.8857H35.2097C33.5107 34.8936 31.8707 35.5092 30.5874 36.6208C29.304 37.7324 28.4623 39.2664 28.2149 40.9445L27.4559 46.2425C27.4317 46.4138 27.4477 46.5883 27.5027 46.7523C27.5577 46.9163 27.6502 47.0653 27.7729 47.1874C28.0706 47.4846 29.8967 49 36.003 49C42.1093 49 43.9309 47.4905 44.233 47.1874C44.3557 47.0653 44.4482 46.9163 44.5032 46.7523C44.5583 46.5883 44.5743 46.4138 44.55 46.2425L43.788 40.9445Z" fill="black"/>
<path d="M29.3921 35.7029C27.9538 37.0266 27.0179 38.8059 26.743 40.7394L26.1924 44.5429C21.7723 44.5131 20.4328 42.9086 20.2096 42.5817C20.1233 42.463 20.0617 42.3282 20.0285 42.1853C19.9953 42.0424 19.9911 41.8943 20.0161 41.7497L20.3435 39.9074C20.5141 38.9446 20.9148 38.0371 21.5115 37.2617C22.1082 36.4864 22.8834 35.8661 23.7714 35.4535C24.6593 35.0409 25.6338 34.8481 26.6123 34.8915C27.5908 34.9349 28.5443 35.2132 29.3921 35.7029Z" fill="black"/>
<path d="M51.9839 41.7497C52.0089 41.8943 52.0047 42.0424 51.9715 42.1853C51.9383 42.3282 51.8767 42.463 51.7904 42.5817C51.5672 42.9086 50.2277 44.5131 45.8076 44.5429L45.257 40.7394C44.9821 38.8059 44.0462 37.0266 42.6079 35.7029C43.4557 35.2132 44.4092 34.9349 45.3877 34.8915C46.3662 34.8481 47.3407 35.0409 48.2286 35.4535C49.1166 35.8661 49.8918 36.4864 50.4885 37.2617C51.0852 38.0371 51.4859 38.9446 51.6565 39.9074L51.9839 41.7497Z" fill="black"/>
<path d="M29.6451 32.4343C29.2705 32.9647 28.7732 33.397 28.1954 33.6944C27.6176 33.9919 26.9764 34.1457 26.3263 34.1429C25.6778 34.1429 25.0386 33.989 24.4614 33.694C23.8841 33.399 23.3853 32.9713 23.0062 32.4461C22.627 31.9209 22.3782 31.3133 22.2804 30.6733C22.1826 30.0333 22.2386 29.3793 22.4436 28.7651C22.6487 28.151 22.9971 27.5942 23.4599 27.1408C23.9228 26.6874 24.487 26.3503 25.106 26.1573C25.725 25.9642 26.3811 25.9208 27.0202 26.0306C27.6593 26.1403 28.2632 26.4001 28.782 26.7886C28.6327 27.3711 28.5577 27.9701 28.5587 28.5714C28.5599 29.934 28.9356 31.2702 29.6451 32.4343Z" fill="black"/>
<path d="M49.7664 30.0571C49.7668 30.5938 49.6612 31.1253 49.4556 31.6211C49.2501 32.117 48.9486 32.5676 48.5685 32.9471C48.1884 33.3265 47.7371 33.6275 47.2403 33.8326C46.7436 34.0378 46.2112 34.1432 45.6737 34.1429C45.0236 34.1457 44.3824 33.9919 43.8046 33.6944C43.2268 33.397 42.7295 32.9647 42.3549 32.4343C43.0644 31.2702 43.4401 29.934 43.4413 28.5714C43.4423 27.9701 43.3673 27.3711 43.2181 26.7886C43.8261 26.3333 44.5491 26.0561 45.3061 25.9879C46.0631 25.9198 46.8242 26.0634 47.504 26.4028C48.1838 26.7421 48.7556 27.2637 49.1551 27.9092C49.5547 28.5546 49.7664 29.2984 49.7664 30.0571Z" fill="black"/>
<path d="M36 34.1429C39.0823 34.1429 41.581 31.6484 41.581 28.5714C41.581 25.4944 39.0823 23 36 23C32.9177 23 30.419 25.4944 30.419 28.5714C30.419 31.6484 32.9177 34.1429 36 34.1429Z" fill="black"/>
</g>
<circle cx="36.5" cy="36.5" r="30" stroke="#EAC666"/>
<defs>
<filter id="filter0_d_228_231" x="0" y="0" width="73" height="73" filterUnits="userSpaceOnUse" color-interpolation-filters="sRGB">
<feFlood flood-opacity="0" result="BackgroundImageFix"/>
<feColorMatrix in="SourceAlpha" type="matrix" values="0 0 0 0 0 0 0 0 0 0 0 0 0 0 0 0 0 0 127 0" result="hardAlpha"/>
<feOffset/>
<feGaussianBlur stdDeviation="5.5"/>
<feComposite in2="hardAlpha" operator="out"/>
<feColorMatrix type="matrix" values="0 0 0 0 1 0 0 0 0 0.894118 0 0 0 0 0.345098 0 0 0 1 0"/>
<feBlend mode="normal" in2="BackgroundImageFix" result="effect1_dropShadow_228_231"/>
<feBlend mode="normal" in="SourceGraphic" in2="effect1_dropShadow_228_231" result="shape"/>
</filter>
<radialGradient id="paint0_radial_228_231" cx="0" cy="0" r="1" gradientUnits="userSpaceOnUse" gradientTransform="translate(36 37) rotate(180) scale(25 26)">
<stop offset="0.303924" stop-color="#F2E191"/>
<stop offset="1" stop-color="#E8C25F"/>
</radialGradient>
</defs>
</svg>
