<svg width="61" height="61" viewBox="0 0 61 61" fill="none" xmlns="http://www.w3.org/2000/svg">
<g clip-path="url(#clip0_228_254)">
<g filter="url(#filter0_d_228_254)">
<rect x="5" y="5" width="51" height="51" rx="25.5" fill="url(#paint0_radial_228_254)" shape-rendering="crispEdges"/>
<g clip-path="url(#clip1_228_254)">
<path d="M28.8167 43.121C28.543 43.4392 28.0695 43.4634 27.7645 43.1749L16.2376 32.265C15.9327 31.9765 15.9194 31.4909 16.2078 31.186L19.8804 27.3053C20.1689 27.0004 20.6545 26.9871 20.9594 27.2755L27.2561 33.2347C27.561 33.5233 28.0345 33.499 28.3083 33.1808L40.6098 18.8875C40.8836 18.5694 41.3681 18.533 41.6861 18.807L45.7354 22.2922C46.0536 22.5659 46.0899 23.0504 45.816 23.3686L28.8167 43.121Z" fill="#212121"/>
</g>
</g>
<circle cx="30.5" cy="30.5" r="30" stroke="#EAC666"/>
</g>
<defs>
<filter id="filter0_d_228_254" x="-6" y="-6" width="73" height="73" filterUnits="userSpaceOnUse" color-interpolation-filters="sRGB">
<feFlood flood-opacity="0" result="BackgroundImageFix"/>
<feColorMatrix in="SourceAlpha" type="matrix" values="0 0 0 0 0 0 0 0 0 0 0 0 0 0 0 0 0 0 127 0" result="hardAlpha"/>
<feOffset/>
<feGaussianBlur stdDeviation="5.5"/>
<feComposite in2="hardAlpha" operator="out"/>
<feColorMatrix type="matrix" values="0 0 0 0 1 0 0 0 0 0.894118 0 0 0 0 0.345098 0 0 0 1 0"/>
<feBlend mode="normal" in2="BackgroundImageFix" result="effect1_dropShadow_228_254"/>
<feBlend mode="normal" in="SourceGraphic" in2="effect1_dropShadow_228_254" result="shape"/>
</filter>
<radialGradient id="paint0_radial_228_254" cx="0" cy="0" r="1" gradientUnits="userSpaceOnUse" gradientTransform="translate(30 31) rotate(180) scale(25 26)">
<stop offset="0.303924" stop-color="#F2E191"/>
<stop offset="1" stop-color="#E8C25F"/>
</radialGradient>
<clipPath id="clip0_228_254">
<rect width="61" height="61" fill="white"/>
</clipPath>
<clipPath id="clip1_228_254">
<rect width="30" height="30" fill="white" transform="translate(16 16)"/>
</clipPath>
</defs>
</svg>
