<svg width="61" height="61" viewBox="0 0 61 61" fill="none" xmlns="http://www.w3.org/2000/svg">
<g clip-path="url(#clip0_228_247)">
<g filter="url(#filter0_d_228_247)">
<rect x="5" y="5" width="51" height="51" rx="25.5" fill="url(#paint0_radial_228_247)" shape-rendering="crispEdges"/>
<path d="M41.7044 31.6011C41.1912 36.935 36.935 41.1912 31.6011 41.7044V49C36.1389 48.7395 40.3688 46.8493 43.6091 43.6091C46.8494 40.3688 48.7395 36.1389 49 31.601H41.7044V31.6011Z" fill="#212121"/>
<path d="M29.4312 41.7044C23.7402 41.1568 19.2753 36.3484 19.2753 30.5162C19.2753 27.8783 20.1781 25.3792 21.8371 23.3714L16.6789 18.2133C13.6544 21.6062 12 25.9338 12 30.5162C12 35.462 13.926 40.1118 17.4232 43.6091C20.6635 46.8493 24.8934 48.7395 29.4312 49V41.7044Z" fill="#212121"/>
<path d="M23.3714 21.8371C25.3792 20.1781 27.8783 19.2753 30.5162 19.2753C36.3484 19.2753 41.1568 23.7402 41.7044 29.4312H48.9999C48.7395 24.8934 46.8492 20.6635 43.6091 17.4233C40.1118 13.926 35.462 12 30.5162 12C25.9338 12 21.6061 13.6544 18.2133 16.6789L23.3714 21.8371Z" fill="#212121"/>
<path d="M31.9883 29.3154C31.0069 28.9685 29.9214 28.5495 29.3126 28.072C29.1213 27.922 29.0386 27.5785 29.1066 27.2172C29.1406 27.0369 29.2993 26.4345 29.9155 26.2488C30.9273 25.9442 31.6211 26.3483 31.8724 26.5362C32.3524 26.8949 33.0322 26.7967 33.3909 26.3168C33.7498 25.8369 33.6515 25.157 33.1716 24.7982C32.944 24.628 32.3736 24.2547 31.5558 24.0735V23.6319C31.5558 23.0327 31.0701 22.547 30.4709 22.547C29.8717 22.547 29.386 23.0327 29.386 23.6319V24.1442C29.3539 24.1532 29.3221 24.1614 29.2897 24.1712C28.1014 24.5292 27.2142 25.5423 26.9743 26.8153C26.7535 27.987 27.1363 29.1228 27.9734 29.7794C28.6632 30.3203 29.6169 30.7786 31.2651 31.3613C32.3625 31.7492 32.3387 32.6374 32.2775 33.0012C32.1535 33.7388 31.533 34.5361 30.4636 34.5432C29.4155 34.5502 29.0881 34.4983 28.2824 33.9712C27.781 33.6432 27.1086 33.7838 26.7806 34.2852C26.4526 34.7867 26.5932 35.459 27.0946 35.7871C27.9635 36.3555 28.6047 36.5861 29.3859 36.6702V37.1661C29.3859 37.7652 29.8716 38.251 30.4708 38.251C31.0701 38.251 31.5557 37.7652 31.5557 37.1661V36.566C32.1534 36.4014 32.6981 36.1008 33.1636 35.6731C33.8233 35.0669 34.2685 34.2458 34.4173 33.3609C34.72 31.5617 33.7438 29.936 31.9883 29.3154Z" fill="#212121"/>
</g>
<circle cx="30.5" cy="30.5" r="30" stroke="#EAC666"/>
</g>
<defs>
<filter id="filter0_d_228_247" x="-6" y="-6" width="73" height="73" filterUnits="userSpaceOnUse" color-interpolation-filters="sRGB">
<feFlood flood-opacity="0" result="BackgroundImageFix"/>
<feColorMatrix in="SourceAlpha" type="matrix" values="0 0 0 0 0 0 0 0 0 0 0 0 0 0 0 0 0 0 127 0" result="hardAlpha"/>
<feOffset/>
<feGaussianBlur stdDeviation="5.5"/>
<feComposite in2="hardAlpha" operator="out"/>
<feColorMatrix type="matrix" values="0 0 0 0 1 0 0 0 0 0.894118 0 0 0 0 0.345098 0 0 0 1 0"/>
<feBlend mode="normal" in2="BackgroundImageFix" result="effect1_dropShadow_228_247"/>
<feBlend mode="normal" in="SourceGraphic" in2="effect1_dropShadow_228_247" result="shape"/>
</filter>
<radialGradient id="paint0_radial_228_247" cx="0" cy="0" r="1" gradientUnits="userSpaceOnUse" gradientTransform="translate(30 31) rotate(180) scale(25 26)">
<stop offset="0.303924" stop-color="#F2E191"/>
<stop offset="1" stop-color="#E8C25F"/>
</radialGradient>
<clipPath id="clip0_228_247">
<rect width="61" height="61" fill="white"/>
</clipPath>
</defs>
</svg>
