<svg width="61" height="61" viewBox="0 0 61 61" fill="none" xmlns="http://www.w3.org/2000/svg">
<g clip-path="url(#clip0_228_239)">
<g filter="url(#filter0_d_228_239)">
<rect x="5" y="5" width="51" height="51" rx="25.5" fill="url(#paint0_radial_228_239)" shape-rendering="crispEdges"/>
<path d="M23.498 25.5945V40.7296C23.497 40.9878 23.4513 41.2439 23.363 41.4863C23.2083 41.9279 22.9221 42.3104 22.5435 42.5814C22.165 42.8524 21.7127 42.9985 21.2486 42.9998H18.2494C17.6528 42.9998 17.0807 42.7607 16.6588 42.3349C16.237 41.9091 16 41.3317 16 40.7296V25.5945C16 24.9924 16.237 24.415 16.6588 23.9892C17.0807 23.5635 17.6528 23.3243 18.2494 23.3243H21.2486C21.8349 23.3241 22.3982 23.5549 22.8183 23.9677C23.2385 24.3804 23.4824 24.9424 23.498 25.534C23.498 25.534 23.498 25.5718 23.498 25.5945Z" fill="#212121"/>
<path d="M23.498 25.5945V40.7296C23.497 40.9878 23.4513 41.2439 23.363 41.4863C23.2083 41.9279 22.9221 42.3104 22.5435 42.5814C22.165 42.8524 21.7127 42.9985 21.2486 42.9998H18.2494C17.6528 42.9998 17.0807 42.7607 16.6588 42.3349C16.237 41.9091 16 41.3317 16 40.7296V25.5945C16 24.9924 16.237 24.415 16.6588 23.9892C17.0807 23.5635 17.6528 23.3243 18.2494 23.3243H21.2486C21.8349 23.3241 22.3982 23.5549 22.8183 23.9677C23.2385 24.3804 23.4824 24.9424 23.498 25.534C23.498 25.534 23.498 25.5718 23.498 25.5945Z" fill="#212121"/>
<path d="M44.2674 33.0334C44.0671 33.2238 43.8427 33.3866 43.6001 33.5177C44.0423 34.0563 44.2861 34.7329 44.2899 35.4323C44.2926 35.831 44.2156 36.2261 44.0636 36.5941C43.9116 36.962 43.6877 37.2953 43.4052 37.5739C43.2097 37.7657 42.9905 37.931 42.7528 38.0658C43.1088 38.5087 43.3336 39.044 43.4013 39.6101C43.469 40.1763 43.3769 40.7502 43.1356 41.2658C42.8942 41.7815 42.5135 42.2178 42.0372 42.5246C41.5609 42.8313 41.0085 42.9961 40.4435 42.9998H28.1767C26.969 43.0073 25.7741 42.749 24.6752 42.2431C24.7165 42.1601 24.7516 42.0741 24.7801 41.9858C24.9225 41.5825 24.9961 41.1577 24.9976 40.7296V25.4053C24.9976 25.2994 24.9976 25.1935 24.9976 25.0875C25.8956 24.6576 26.6542 23.9792 27.1852 23.1312C27.7161 22.2831 27.9976 21.3004 27.9968 20.2973V17.2703C27.9968 16.6681 28.2338 16.0907 28.6556 15.6649C29.0775 15.2392 29.6496 15 30.2462 15C30.9213 15.0003 31.589 15.1427 32.2066 15.4179C32.8242 15.6932 33.3782 16.0954 33.8333 16.5988C34.2883 17.1022 34.6344 17.6958 34.8495 18.3417C35.0645 18.9876 35.1439 19.6717 35.0824 20.3502L34.8125 23.3243H42.8653C43.6409 23.3091 44.3937 23.5898 44.9733 24.1102C45.5528 24.6307 45.9166 25.3526 45.992 26.1318C46.0235 26.5653 45.9621 27.0006 45.812 27.408C45.6619 27.8154 45.4266 28.1854 45.1222 28.4929C44.9352 28.689 44.7234 28.8595 44.4924 28.9999C44.9648 29.5792 45.2071 30.315 45.1725 31.0644C45.1379 31.8139 44.8287 32.5237 44.3049 33.0561L44.2674 33.0334Z" fill="#212121"/>
</g>
<circle cx="30.5" cy="30.5" r="30" stroke="#EAC666"/>
</g>
<defs>
<filter id="filter0_d_228_239" x="-6" y="-6" width="73" height="73" filterUnits="userSpaceOnUse" color-interpolation-filters="sRGB">
<feFlood flood-opacity="0" result="BackgroundImageFix"/>
<feColorMatrix in="SourceAlpha" type="matrix" values="0 0 0 0 0 0 0 0 0 0 0 0 0 0 0 0 0 0 127 0" result="hardAlpha"/>
<feOffset/>
<feGaussianBlur stdDeviation="5.5"/>
<feComposite in2="hardAlpha" operator="out"/>
<feColorMatrix type="matrix" values="0 0 0 0 1 0 0 0 0 0.894118 0 0 0 0 0.345098 0 0 0 1 0"/>
<feBlend mode="normal" in2="BackgroundImageFix" result="effect1_dropShadow_228_239"/>
<feBlend mode="normal" in="SourceGraphic" in2="effect1_dropShadow_228_239" result="shape"/>
</filter>
<radialGradient id="paint0_radial_228_239" cx="0" cy="0" r="1" gradientUnits="userSpaceOnUse" gradientTransform="translate(30 31) rotate(180) scale(25 26)">
<stop offset="0.303924" stop-color="#F2E191"/>
<stop offset="1" stop-color="#E8C25F"/>
</radialGradient>
<clipPath id="clip0_228_239">
<rect width="61" height="61" fill="white"/>
</clipPath>
</defs>
</svg>
