<svg width="64" height="65" viewBox="0 0 64 65" fill="none" xmlns="http://www.w3.org/2000/svg">
<rect y="0.130859" width="64" height="64" rx="32" fill="url(#paint0_radial_228_479)"/>
<path d="M32 13.1309C28.2885 13.1359 24.7304 14.6388 22.1059 17.3101C19.4815 19.9814 18.0049 23.6031 18 27.3808C18 37.6111 31.0433 50.4243 31.5975 50.9646C31.7053 51.0712 31.8497 51.1309 32 51.1309C32.1503 51.1309 32.2947 51.0712 32.4025 50.9646C32.9567 50.4243 46 37.6111 46 27.3808C45.9951 23.6031 44.5185 19.9814 41.8941 17.3101C39.2696 14.6388 35.7115 13.1359 32 13.1309ZM32 33.9121C30.7309 33.9121 29.4903 33.529 28.4351 32.8114C27.3799 32.0937 26.5574 31.0737 26.0718 29.8802C25.5861 28.6868 25.459 27.3736 25.7066 26.1067C25.9542 24.8397 26.5653 23.676 27.4627 22.7626C28.3601 21.8491 29.5035 21.2271 30.7482 20.9751C31.9929 20.7231 33.2831 20.8524 34.4556 21.3468C35.628 21.8411 36.6302 22.6782 37.3353 23.7523C38.0403 24.8263 38.4167 26.0891 38.4167 27.3808C38.4156 29.1127 37.7393 30.7734 36.5361 31.998C35.333 33.2226 33.7015 33.911 32 33.9121Z" fill="black"/>
<defs>
<radialGradient id="paint0_radial_228_479" cx="0" cy="0" r="1" gradientUnits="userSpaceOnUse" gradientTransform="translate(31.3726 32.7583) rotate(180) scale(31.3725 32.6274)">
<stop offset="0.303924" stop-color="#F2E191"/>
<stop offset="1" stop-color="#E8C25F"/>
</radialGradient>
</defs>
</svg>
