<svg width="35" height="35" viewBox="0 0 35 36" fill="none" xmlns="http://www.w3.org/2000/svg">
<path fill-rule="evenodd" clip-rule="evenodd" d="M27.9464 11.7153C25.8425 8.07909 21.9986 5.85616 17.6044 5.85616C10.9521 5.85616 5.76521 11.1177 5.76521 18C5.76521 24.8823 10.9521 30.6733 17.6044 30.6733C21.9986 30.6733 25.8425 28.0268 27.9464 24.3906H33.9759C31.4841 31.1766 25.0377 36 17.6044 36C7.9955 36 0 27.9411 0 18C0 8.05886 7.9955 0 17.6044 0C25.0377 0 31.4841 4.92926 33.9759 11.7153L27.9464 11.7153ZM34.6031 15.8824V20.3294H23.2666C22.3789 22.6833 20.157 24.353 17.5545 24.353C14.1712 24.353 11.4285 21.5324 11.4285 18.053C11.4285 14.5735 14.1712 11.753 17.5545 11.753C20.1962 11.753 22.4471 13.4724 23.3072 15.8824H34.6031Z" fill="url(#paint0_linear_5210_51)"/>
<path d="M29.4913 18C29.4913 24.9075 24.0639 30.6 17.4982 30.6C17.0332 30.6 16.5739 30.6536 16.1219 30.6V35.9451C16.576 35.9815 17.035 36 17.4982 36C27.5252 36 35.1929 27.8 34.9963 18C34.9963 17.324 34.9601 16.6567 34.8895 16H29.3368C29.4384 16.6503 29.4913 17.3182 29.4913 18Z" fill="url(#paint1_linear_5210_51)"/>
<defs>
<linearGradient id="paint0_linear_5210_51" x1="35" y1="2.05357e-05" x2="-1.7338" y2="1.86586" gradientUnits="userSpaceOnUse">
<stop stop-color="#E8C25F"/>
<stop offset="0.505208" stop-color="#F2E191"/>
<stop offset="1" stop-color="#D3A647"/>
</linearGradient>
<linearGradient id="paint1_linear_5210_51" x1="35" y1="2.05357e-05" x2="-1.7338" y2="1.86586" gradientUnits="userSpaceOnUse">
<stop stop-color="#E8C25F"/>
<stop offset="0.505208" stop-color="#F2E191"/>
<stop offset="1" stop-color="#D3A647"/>
</linearGradient>
</defs>
</svg>
